<svg width="256" height="256" viewBox="0 0 256 256" fill="none" xmlns="http://www.w3.org/2000/svg">
<path d="M176 116H152C148.817 116 145.765 114.736 143.515 112.485C141.264 110.235 140 107.183 140 104C140 100.817 141.264 97.7652 143.515 95.5147C145.765 93.2643 148.817 92 152 92H176C179.183 92 182.235 93.2643 184.485 95.5147C186.736 97.7652 188 100.817 188 104C188 107.183 186.736 110.235 184.485 112.485C182.235 114.736 179.183 116 176 116ZM104 92H100V88C100 84.8174 98.7357 81.7652 96.4852 79.5147C94.2348 77.2643 91.1826 76 88 76C84.8174 76 81.7651 77.2643 79.5147 79.5147C77.2642 81.7652 76 84.8174 76 88V92H72C68.8174 92 65.7651 93.2643 63.5147 95.5147C61.2642 97.7652 60 100.817 60 104C60 107.183 61.2642 110.235 63.5147 112.485C65.7651 114.736 68.8174 116 72 116H76V120C76 123.183 77.2642 126.235 79.5147 128.485C81.7651 130.736 84.8174 132 88 132C91.1826 132 94.2348 130.736 96.4852 128.485C98.7357 126.235 100 123.183 100 120V116H104C107.183 116 110.235 114.736 112.485 112.485C114.736 110.235 116 107.183 116 104C116 100.817 114.736 97.7652 112.485 95.5147C110.235 93.2643 107.183 92 104 92ZM244.76 202.94C241.41 207.717 237.055 211.703 232.002 214.619C226.948 217.535 221.318 219.31 215.506 219.82C209.694 220.329 203.84 219.561 198.356 217.57C192.872 215.578 187.89 212.411 183.76 208.29C183.573 208.113 183.396 207.926 183.23 207.73L144.67 164H111.33L72.81 207.73C72.64 207.92 72.46 208.11 72.28 208.29C66.2629 214.299 58.4873 218.235 50.0818 219.525C41.6763 220.815 33.0784 219.392 25.5362 215.464C17.9939 211.536 11.8999 205.306 8.13875 197.679C4.37758 190.052 3.14501 181.425 4.61995 173.05C4.61429 172.983 4.61429 172.917 4.61995 172.85L21 88.79C23.6064 74.0043 31.3375 60.6091 42.8362 50.9556C54.3348 41.302 68.8663 36.007 83.88 36H172C186.967 36.0213 201.455 41.2812 212.949 50.8671C224.444 60.453 232.221 73.7601 234.93 88.48C234.933 88.5433 234.933 88.6067 234.93 88.67L251.29 172.84C251.294 172.907 251.294 172.973 251.29 173.04C252.232 178.208 252.14 183.512 251.019 188.644C249.898 193.776 247.771 198.635 244.76 202.94ZM172 140C182.609 140 192.783 135.786 200.284 128.284C207.786 120.783 212 110.609 212 100C212 89.3913 207.786 79.2172 200.284 71.7157C192.783 64.2143 182.609 60 172 60H83.89C74.5007 60.0093 65.4154 63.3294 58.2326 69.3764C51.0498 75.4234 46.2295 83.8097 44.62 93.06C44.6152 93.1299 44.6152 93.2001 44.62 93.27L28.28 177.27C27.5713 181.438 28.5407 185.716 30.9765 189.171C33.4124 192.626 37.1165 194.977 41.28 195.71C43.7585 196.142 46.3039 195.986 48.7112 195.255C51.1185 194.524 53.3205 193.238 55.14 191.5L96.9 144.07C98.0254 142.792 99.41 141.768 100.962 141.066C102.514 140.364 104.197 140.001 105.9 140H172ZM227.76 177.31L220.76 141.36C215.255 147.87 208.501 153.212 200.897 157.069C193.294 160.927 184.995 163.222 176.49 163.82L200.9 191.54C203.329 193.87 206.431 195.375 209.765 195.841C213.099 196.306 216.495 195.708 219.469 194.131C222.444 192.555 224.845 190.081 226.332 187.061C227.818 184.041 228.315 180.629 227.75 177.31H227.76Z" fill="black"/>
</svg>
