<svg width="258" height="258" viewBox="0 0 258 258" fill="none" xmlns="http://www.w3.org/2000/svg">
<g clip-path="url(#clip0_120_841)">
<path d="M25.8 0C23.5191 0 21.3316 0.906069 19.7188 2.51888C18.106 4.13169 17.2 6.31914 17.2 8.6V232.2C17.2 234.481 18.106 236.668 19.7188 238.281C21.3316 239.894 23.5191 240.8 25.8 240.8H51.6V0H25.8Z" fill="black"/>
<path fill-rule="evenodd" clip-rule="evenodd" d="M68.8 258H86V240.8H197.8C209.204 240.8 220.142 236.27 228.206 228.206C236.27 220.142 240.8 209.204 240.8 197.8V43C240.8 31.5957 236.27 20.6585 228.206 12.5944C220.142 4.53034 209.204 0 197.8 0L68.8 0V258ZM189.2 86H120.4V68.8H189.2V86Z" fill="black"/>
</g>
<defs>
<clipPath id="clip0_120_841">
<rect width="258" height="258" fill="white"/>
</clipPath>
</defs>
</svg>
